<?xml version="1.0" standalone="no"?><!DOCTYPE svg PUBLIC "-//W3C//DTD SVG 1.1//EN" "http://www.w3.org/Graphics/SVG/1.1/DTD/svg11.dtd"><svg t="1618220154756" class="icon" viewBox="0 0 1024 1024" version="1.1" xmlns="http://www.w3.org/2000/svg" p-id="2089" width="200" height="200" xmlns:xlink="http://www.w3.org/1999/xlink"><defs><style type="text/css"></style></defs><path d="M896 298.666667a64 64 0 0 0-64-64h-80.426667a106.666667 106.666667 0 0 0-182.186666-75.52L512 217.173333l-57.386667-57.386666a106.666667 106.666667 0 0 0-150.826666 0A105.386667 105.386667 0 0 0 272.426667 234.666667H192a64 64 0 0 0-64 64v106.666666h85.333333v384a106.666667 106.666667 0 0 0 106.666667 106.666667h384a106.666667 106.666667 0 0 0 106.666667-106.666667V405.333333h85.333333zM599.68 190.08a65.28 65.28 0 0 1 90.453333 0 64 64 0 0 1 18.773334 44.586667H554.666667z m-265.813333 0a64 64 0 0 1 90.453333 0L469.333333 234.666667h-154.24a64 64 0 0 1 18.773334-44.8zM170.666667 362.666667v-64a21.333333 21.333333 0 0 1 21.333333-21.333334h298.666667v85.333334H170.666667z m85.333333 426.666666V405.333333h234.666667v448h-170.666667a64 64 0 0 1-64-64z m512 0a64 64 0 0 1-64 64h-170.666667V405.333333h234.666667z m85.333333-426.666666H533.333333v-85.333334h298.666667a21.333333 21.333333 0 0 1 21.333333 21.333334z" p-id="2090"></path></svg>