<?xml version="1.0" standalone="no"?><!DOCTYPE svg PUBLIC "-//W3C//DTD SVG 1.1//EN" "http://www.w3.org/Graphics/SVG/1.1/DTD/svg11.dtd"><svg t="1618305548647" class="icon" viewBox="0 0 1024 1024" version="1.1" xmlns="http://www.w3.org/2000/svg" p-id="5701" xmlns:xlink="http://www.w3.org/1999/xlink" width="200" height="200"><defs><style type="text/css"></style></defs><path d="M768 53.333333a117.333333 117.333333 0 0 1 117.12 110.165334L885.333333 170.666667v242.816l41.429334-16.512a32 32 0 0 1 43.605333 25.258666l0.298667 4.437334v426.666666A117.333333 117.333333 0 0 1 853.333333 970.666667H170.666667A117.333333 117.333333 0 0 1 53.333333 853.333333V426.666667a32 32 0 0 1 43.904-29.696l41.429334 16.554666V170.666667a117.333333 117.333333 0 0 1 110.165333-117.12L256 53.333333h512z m138.666667 420.565334l-382.762667 153.173333a32 32 0 0 1-23.808 0l-382.762667-153.173333V853.333333c0 27.605333 20.992 50.346667 47.872 53.077334L170.666667 906.666667h682.666666c29.44 0 53.333333-23.893333 53.333334-53.333334v-379.434666zM768 117.333333H256a53.333333 53.333333 0 0 0-53.077333 47.872L202.666667 170.666667v268.458666l309.333333 123.733334 309.333333-123.776V170.666667a53.333333 53.333333 0 0 0-47.872-53.077334L768 117.333333z" p-id="5702"></path><path d="M725.333333 224a32 32 0 0 1 4.352 63.701333L725.333333 288h-256a32 32 0 0 1-4.352-63.701333L469.333333 224h256zM725.333333 352a32 32 0 0 1 4.352 63.701333L725.333333 416H384a32 32 0 0 1-4.352-63.701333L384 352h341.333333z" p-id="5703"></path></svg>