<?xml version="1.0" standalone="no"?><!DOCTYPE svg PUBLIC "-//W3C//DTD SVG 1.1//EN" "http://www.w3.org/Graphics/SVG/1.1/DTD/svg11.dtd"><svg t="1594006095694" class="icon" viewBox="0 0 1024 1024" version="1.1" xmlns="http://www.w3.org/2000/svg" p-id="1415" xmlns:xlink="http://www.w3.org/1999/xlink" width="200" height="200"><defs><style type="text/css"></style></defs><path d="M229.517241 0h370.758621a52.965517 52.965517 0 0 1 52.965517 52.965517v670.896552a52.965517 52.965517 0 0 1-52.965517 52.965517H70.62069a52.965517 52.965517 0 0 1-52.965518-52.965517V211.862069L229.517241 0z" fill="#2784FF" p-id="1416"></path><path d="M229.517241 0v211.862069H17.655172zM158.896552 529.655172h353.103448v17.655173H158.896552z" fill="#ACD0FF" p-id="1417"></path><path d="M538.482759 626.758621v-264.827587H176.551724A26.482759 26.482759 0 0 0 150.068966 388.413793v211.862069a26.482759 26.482759 0 0 0 26.482758 26.482759h361.931035z m-17.655173-247.172414v229.517241H176.551724a8.827586 8.827586 0 0 1-8.827586-8.827586V388.413793l0.141241-1.588965A8.827586 8.827586 0 0 1 176.551724 379.586207h344.275862z" fill="#ACD0FF" p-id="1418"></path><path d="M229.517241 370.758621h17.655173v247.172413h-17.655173z" fill="#ACD0FF" p-id="1419"></path><path d="M158.896552 441.37931h353.103448v17.655173H158.896552z" fill="#ACD0FF" p-id="1420"></path><path d="M300.137931 370.758621h17.655172v247.172413h-17.655172zM388.413793 370.758621h17.655173v247.172413h-17.655173z" fill="#ACD0FF" p-id="1421"></path><path d="M582.62069 247.172414h370.75862a52.965517 52.965517 0 0 1 52.965518 52.965517v670.896552a52.965517 52.965517 0 0 1-52.965518 52.965517H423.724138a52.965517 52.965517 0 0 1-52.965517-52.965517V459.034483l211.862069-211.862069z" fill="#E6E7EA" p-id="1422"></path><path d="M582.62069 247.172414v211.862069H370.758621zM538.482759 617.931034h300.137931a8.827586 8.827586 0 1 1 0 17.655173h-300.137931a8.827586 8.827586 0 1 1 0-17.655173zM538.482759 723.862069h300.137931a8.827586 8.827586 0 1 1 0 17.655172h-300.137931a8.827586 8.827586 0 1 1 0-17.655172zM538.482759 829.793103h300.137931a8.827586 8.827586 0 1 1 0 17.655173h-300.137931a8.827586 8.827586 0 1 1 0-17.655173z" fill="#7A869A" p-id="1423"></path></svg>