<?xml version="1.0" standalone="no"?><!DOCTYPE svg PUBLIC "-//W3C//DTD SVG 1.1//EN" "http://www.w3.org/Graphics/SVG/1.1/DTD/svg11.dtd"><svg t="1647936711817" class="icon" viewBox="0 0 1024 1024" version="1.1" xmlns="http://www.w3.org/2000/svg" p-id="3550" xmlns:xlink="http://www.w3.org/1999/xlink" width="200" height="200"><defs><style type="text/css"></style></defs><path d="M511.999744 0c282.777459 0 511.999744 229.222285 511.999744 511.999744a509.593345 509.593345 0 0 1-73.676763 264.703868l1.535999 1.228799-21.913589 29.900785c-2.867199 4.095998-5.836797 8.038396-8.806396 12.031994l-29.798385 40.60158-2.559998-1.791999A510.617345 510.617345 0 0 1 511.999744 1023.999488C229.222285 1023.999488 0 794.777203 0 511.999744S229.222285 0 511.999744 0zM102.399949 511.999744a409.599795 409.599795 0 0 0 703.180448 285.593457l-654.335673-479.74376A407.807796 407.807796 0 0 0 102.399949 511.999744z m409.599795-409.599795c-119.09114 0-226.303887 50.841575-301.158249 131.993534l656.486071 481.484559A409.599795 409.599795 0 0 0 511.999744 102.399949z" fill="#666666" p-id="3551"></path></svg>