<?xml version="1.0" standalone="no"?><!DOCTYPE svg PUBLIC "-//W3C//DTD SVG 1.1//EN" "http://www.w3.org/Graphics/SVG/1.1/DTD/svg11.dtd"><svg t="1647592258452" class="icon" viewBox="0 0 1024 1024" version="1.1" xmlns="http://www.w3.org/2000/svg" p-id="3519" xmlns:xlink="http://www.w3.org/1999/xlink" width="200" height="200"><defs><style type="text/css"></style></defs><path d="M1023.188027 438.801494v147.923755a24.848852 24.848852 0 0 1-5.335194 15.20165 20.829185 20.829185 0 0 1-13.301445 8.770184l-123.294157 18.636639a441.432549 441.432549 0 0 1-25.945125 60.660433c15.64016 22.217797 39.392739 52.840353 71.330822 92.013837a25.87204 25.87204 0 0 1 6.796892 16.736433 21.048439 21.048439 0 0 1-6.139128 15.201651c-11.985917 16.517178-33.911375 40.489012-65.776373 72.061671-32.011168 31.426489-52.840353 47.505158-62.560639 47.505158a31.572659 31.572659 0 0 1-17.394197-6.139128l-91.940753-72.061671a379.310419 379.310419 0 0 1-60.660433 25.360446c-7.089231 60.368094-13.520699 101.661039-19.221318 123.805751-3.069564 12.424426-10.962729 18.709724-23.971833 18.709724H437.924476a25.068107 25.068107 0 0 1-16.297924-5.627534 19.659827 19.659827 0 0 1-7.67391-14.178463l-18.782809-122.855648a421.699637 421.699637 0 0 1-59.929584-24.556512l-93.840959 71.403907a24.337258 24.337258 0 0 1-33.545951-1.169358c-55.836832-50.574722-92.525432-88.067255-109.919628-111.966004a26.383634 26.383634 0 0 1-4.604346-15.274735c0-5.335195 1.827121-10.304965 5.335195-15.201651 6.796892-9.354862 17.90579-24.118003 33.911374-44.289425 16.005584-20.171421 27.991501-35.811581 35.957751-46.920479a329.24729 329.24729 0 0 1-27.406822-65.922543L19.294403 608.723791a20.025251 20.025251 0 0 1-13.886123-8.331674A26.01821 26.01821 0 0 1 0 584.678873V436.243524c0-5.40828 1.754037-10.37805 5.335195-15.274736a20.683015 20.683015 0 0 1 12.570595-8.697098l123.732667-18.636639c6.285298-20.463761 14.836226-40.927521 25.945125-61.318197a1484.938167 1484.938167 0 0 0-71.330823-92.013837 25.068107 25.068107 0 0 1-6.723807-16.005584c0-4.458176 1.900206-9.574117 6.139129-15.201651 11.474323-16.005584 33.180526-39.831248 65.410948-71.623162 32.230423-31.938083 53.205777-47.797498 62.852979-47.797498 5.846789 0 11.547408 2.192546 17.467282 6.796892l91.940752 71.403907c19.367488-10.23188 39.758163-18.636639 60.587348-25.360446 7.162316-60.368094 13.520699-101.661039 19.294403-123.805751 3.069564-12.424426 10.962729-18.709724 23.898749-18.709724h147.777585c6.285298 0 11.693577 1.900206 16.224839 5.627534 4.604346 3.654243 7.162316 8.550929 7.67391 14.178463l18.709724 122.636393c21.706203 7.162316 41.65837 15.201651 59.929585 24.556513l94.498722-71.403907a21.779288 21.779288 0 0 1 16.005585-6.139128c5.700619 0 11.328153 2.192546 16.736432 6.796891 57.29853 52.840353 93.840959 90.69831 109.919628 113.281532a21.560033 21.560033 0 0 1 4.604346 14.616972 24.848852 24.848852 0 0 1-5.335194 15.274735c-6.796892 9.354862-17.90579 24.118003-33.911375 44.289425-15.932499 20.171421-27.991501 35.811581-35.884666 46.92048 11.474323 22.290882 20.536845 44.07017 27.333738 65.264779l121.83246 18.709724c5.773704 0.730849 10.37805 3.581158 13.886123 8.331674a24.118003 24.118003 0 0 1 6.066043 15.859414zM666.533915 666.387745c42.754643-42.681558 64.314676-94.498723 64.314676-154.939901 0-60.514263-21.560033-112.112174-64.314676-154.939901A211.946091 211.946091 0 0 0 511.594014 292.339436c-60.514263 0-112.112174 21.560033-154.939902 64.314676A211.434497 211.434497 0 0 0 292.339436 511.594014c0 60.514263 21.560033 112.112174 64.314676 154.939901 42.681558 42.973897 94.425638 64.314676 154.939902 64.314676a213.188534 213.188534 0 0 0 154.939901-64.460846z" fill="#42C28C" p-id="3520"></path></svg>