<?xml version="1.0" standalone="no"?><!DOCTYPE svg PUBLIC "-//W3C//DTD SVG 1.1//EN" "http://www.w3.org/Graphics/SVG/1.1/DTD/svg11.dtd"><svg t="1622688113631" class="icon" viewBox="0 0 1024 1024" version="1.1" xmlns="http://www.w3.org/2000/svg" p-id="2676" xmlns:xlink="http://www.w3.org/1999/xlink" width="200" height="200"><defs><style type="text/css"></style></defs><path d="M512 0a292.571429 292.571429 0 0 1 196.242286 509.586286c172.178286 107.446857 258.925714 280.429714 258.925714 514.413714h-73.142857l-0.292572-22.820571c-5.558857-209.773714-89.234286-356.937143-252.342857-446.171429A290.011429 290.011429 0 0 1 512 585.142857a291.254857 291.254857 0 0 1-139.556571-35.401143l9.654857-5.046857c-176.128 88.064-266.24 238.445714-272.091429 456.484572L109.714286 1024h-73.142857c0-239.469714 90.916571-415.085714 271.213714-522.020571A292.571429 292.571429 0 0 1 512 0z m0 73.142857a219.428571 219.428571 0 1 0 0 438.857143 219.428571 219.428571 0 0 0 0-438.857143z" p-id="2677"></path></svg>