<?xml version="1.0" standalone="no"?><!DOCTYPE svg PUBLIC "-//W3C//DTD SVG 1.1//EN" "http://www.w3.org/Graphics/SVG/1.1/DTD/svg11.dtd"><svg t="1664352683368" class="icon" viewBox="0 0 1024 1024" version="1.1" xmlns="http://www.w3.org/2000/svg" p-id="8207" xmlns:xlink="http://www.w3.org/1999/xlink" width="200" height="200"><path d="M512 694.784l-209.8176 147.2a25.6 25.6 0 0 1-39.168-28.4672l75.1616-245.0432-204.8-154.0608a25.6 25.6 0 0 1 14.9504-46.08l256.256-4.1984 83.2-242.432a25.6 25.6 0 0 1 48.4352 0l83.2 242.432 256.256 4.2496a25.6 25.6 0 0 1 15.0016 46.08l-204.8 154.0096 75.1104 245.0432a25.6 25.6 0 0 1-39.168 28.4672L512 694.784z" fill="#E9A923" p-id="8208"></path><path d="M537.088 842.2912l19.968 99.84a25.6 25.6 0 0 1-25.088 30.6688h-39.936a25.6 25.6 0 0 1-25.088-30.6176l19.968-99.84a25.6 25.6 0 0 1 50.176 0zM697.2928 214.4256l56.4736-84.736a25.6 25.6 0 0 1 39.424-3.9424l28.2624 28.2624a25.6 25.6 0 0 1-3.9424 39.424L732.7744 249.856a25.6 25.6 0 0 1-35.4816-35.4816zM291.2256 249.9072L206.4896 193.4336a25.6 25.6 0 0 1-3.9424-39.424l28.2624-28.2624a25.6 25.6 0 0 1 39.424 3.9424L326.656 214.4256a25.6 25.6 0 0 1-35.4816 35.4816z" fill="#E9A923" p-id="8209"></path></svg>